<?xml version="1.0" encoding="UTF-8"?>
<svg id="Layer_2" data-name="Layer 2" xmlns="http://www.w3.org/2000/svg" viewBox="0 0 283.2 256.13">
  <defs>
    <style>
      .cls-1 {
        fill: #ffcad4;
      }
    </style>
  </defs>
  <path class="cls-1" d="m9.85,0h107.63c5.44,0,9.85,4.41,9.85,9.85v134.74c0,1.31-.26,2.6-.76,3.8l-42.6,101.69c-1.53,3.66-5.11,6.04-9.08,6.04H29.98c-7.13,0-11.9-7.34-8.99-13.86l36.5-81.84c2.9-6.51-1.86-13.86-8.99-13.86H9.85c-5.44,0-9.85-4.41-9.85-9.85V9.85C0,4.41,4.41,0,9.85,0Z"/>
  <path class="cls-1" d="m165.72,0h107.63c5.44,0,9.85,4.41,9.85,9.85v134.74c0,1.31-.26,2.6-.76,3.8l-42.6,101.69c-1.53,3.66-5.11,6.04-9.08,6.04h-44.9c-7.13,0-11.9-7.34-8.99-13.86l36.5-81.84c2.9-6.51-1.86-13.86-8.99-13.86h-38.64c-5.44,0-9.85-4.41-9.85-9.85V9.85c0-5.44,4.41-9.85,9.85-9.85Z"/>
</svg>